<?xml version="1.0" encoding="utf-8"?>
<!-- Generator: Adobe Illustrator 15.1.0, SVG Export Plug-In . SVG Version: 6.00 Build 0)  -->
<!DOCTYPE svg PUBLIC "-//W3C//DTD SVG 1.1//EN" "http://www.w3.org/Graphics/SVG/1.1/DTD/svg11.dtd">
<svg version="1.1" id="Layer_1" xmlns="http://www.w3.org/2000/svg" xmlns:xlink="http://www.w3.org/1999/xlink" x="0px" y="0px"
	 width="512px" height="512px" viewBox="0 0 512 512" enable-background="new 0 0 512 512" xml:space="preserve">
<g>
	<g>
		<path fill="#007AFF" d="M397.736,78.378c6.823,0,12.357-5.533,12.357-12.358V27.027C410.094,12.125,397.977,0,383.08,0H121.641
			c-3.277,0-6.42,1.303-8.739,3.62L10.527,105.995c-2.317,2.317-3.62,5.461-3.62,8.738v370.239C6.908,499.875,19.032,512,33.935,512
			h349.144c14.896,0,27.015-12.125,27.015-27.027V296.289c0.001-6.824-5.532-12.357-12.356-12.357s-12.358,5.532-12.358,12.357
			v188.684c0,1.274-1.03,2.312-2.297,2.312H33.936c-1.274,0-2.312-1.037-2.312-2.312v-357.88h75.36
			c14.897,0,27.016-12.12,27.016-27.017v-75.36h249.08c1.268,0,2.297,1.037,2.297,2.311V66.02
			C385.377,72.845,390.911,78.378,397.736,78.378z M109.285,100.075c0,1.269-1.032,2.301-2.3,2.301H49.107l60.178-60.18V100.075z"/>
	</g>
</g>
<g>
	<g>
		<path fill="#007AFF" d="M492.865,100.396l-14.541-14.539c-16.305-16.304-42.832-16.302-59.139,0L303.763,201.28H103.559
			c-6.825,0-12.358,5.533-12.358,12.358c0,6.825,5.533,12.358,12.358,12.358h175.487l-74.379,74.379H103.559
			c-6.825,0-12.358,5.533-12.358,12.357s5.533,12.357,12.358,12.357h76.392l-0.199,0.199c-1.508,1.508-2.598,3.379-3.169,5.434
			l-19.088,68.746h-53.936c-6.825,0-12.358,5.533-12.358,12.358s5.533,12.356,12.358,12.356h63.332c0.001,0,2.709-0.306,3.106-0.408
			c0.065-0.019,77.997-21.644,77.997-21.644c2.054-0.569,3.926-1.661,5.434-3.169L492.866,159.53
			C509.168,143.228,509.168,116.7,492.865,100.396z"/>
	</g>
</g>
</svg>
